<?xml version="1.0" encoding="utf-8"?>
<svg xmlns="http://www.w3.org/2000/svg" height="256" width="256" viewBox="0 0 256 256">
  <g>
    <path id="path1" transform="rotate(0,128,128) translate(0,38) scale(8,8)  " fill="#FFFFFF" d="M24.700012,16.299988C26.400024,16.299988 27.800018,17.700012 27.800018,19.399963 27.800018,21.099976 26.400024,22.5 24.700012,22.5 23,22.5 21.600006,21.099976 21.600006,19.399963 21.600006,17.599976 23,16.299988 24.700012,16.299988z M8.7000122,16.299988C10.400024,16.299988 11.800018,17.700012 11.800018,19.399963 11.800018,21.099976 10.400024,22.5 8.7000122,22.5 7,22.5 5.6000061,21.099976 5.6000061,19.399963 5.6000061,17.599976 7,16.299988 8.7000122,16.299988z M22.700012,5.2999878L22.700012,10.599976 29.800018,10.599976C29.800018,10.299988,29.5,9.7999878,29.300018,9.5L26.5,5.5999756C26.5,5.5999756,26.200012,5.2999878,26,5.2999878z M20,2.7000122L26,2.7000122 32,10.700012 32,17.399963C32,18.099976,31.400024,18.700012,30.700012,18.700012L29.400024,18.700012C29.100006,16.399963 27.100006,14.599976 24.700012,14.599976 22.300018,14.599976 20.400024,16.399963 20,18.700012 19.300018,18.700012 18.700012,18.099976 18.700012,17.399963L18.700012,4C18.700012,3.2999878,19.300018,2.7000122,20,2.7000122z M0,0L17.300018,0 17.300018,18.700012 13.100006,18.700012C12.800018,16.5 10.900024,14.799988 8.6000061,14.799988 6.3000183,14.799988 4.5,16.5 4.1000061,18.700012L0,18.700012z" />
  </g>
</svg>

