<?xml version="1.0" encoding="utf-8"?>
<svg xmlns="http://www.w3.org/2000/svg" height="256" width="256" viewBox="0 0 256 256">
  <g>
    <path id="path1" transform="rotate(0,128,128) translate(0.0038754931085947,0) scale(7.99950602720712,7.99950602720712)  " fill="#FFFFFF" d="M28.045811,0.00067142816C28.485262,0.0024983672,32.000877,0.1415966,32.000877,4.1249666L32.000877,28.08083C32.000877,28.08083,32.084862,31.997789,28.000889,31.997789L8.0419673,31.997789C8.0419673,31.997789,4.0009641,32.28978,4.0009641,27.997822L4.0009641,20.145895 4.0009641,18.664888 4.0009641,17.333906 6.6679482,17.333906 6.6679482,29.330818 11.584925,29.330818 11.584925,13.298904 17.499947,13.298904 17.499947,29.334785 19.416931,29.334785 19.416931,9.3619241 25.333906,9.3619241 25.333906,29.3368 28.112888,29.3368 28.112888,29.332771 29.333893,29.332771 29.333893,2.6680081 10.477934,2.6680081 8.5729713,0.0010376617 28.000889,0.0010376617C28.000889,0.0010375893,28.016514,0.00054931198,28.045811,0.00067142816z M6.6669716,0L13.333943,8.0089683 10.708951,8.0089683 10.708951,8.0289879 9.3619709,8.0289879 9.3619709,14.667911 4.0009641,14.667911 4.0009641,8.0289879 2.7079386,8.0289879 2.7079386,8.0089683 0,8.0089683z" />
  </g>
</svg>

